<svg width="20" height="20" viewBox="0 0 20 20" fill="none" xmlns="http://www.w3.org/2000/svg" data-target="shopping-cart"><path d="M19.1782 4.07532H3.54071L3.30826 1.46189C3.27025 1.0345 2.91534 0.707031 2.49018 0.707031H0.821365C0.367737 0.707031 0 1.07816 0 1.53598C0 1.99379 0.367737 2.36493 0.821365 2.36493H1.73926C2.24088 8.005 0.944452 -6.5725 2.68395 12.9869C2.75099 13.7524 3.16085 14.5831 3.86691 15.1476C2.59391 16.7883 3.75704 19.207 5.82778 19.207C7.54647 19.207 8.75869 17.4771 8.1693 15.8386H12.6647C12.0761 17.475 13.2857 19.207 15.0063 19.207C16.3794 19.207 17.4964 18.0796 17.4964 16.6939C17.4964 15.3081 16.3794 14.1807 15.0063 14.1807H5.83333C5.20941 14.1807 4.66571 13.8008 4.43103 13.2473L17.5575 12.4687C17.9159 12.4475 18.2191 12.1937 18.3062 11.8423L19.9751 5.10531C20.1045 4.58291 19.7127 4.07532 19.1782 4.07532Z" fill="white"></path></svg>
