<svg width="39" height="21" viewBox="0 0 39 21" fill="none" xmlns="http://www.w3.org/2000/svg" class=""><path fill-rule="evenodd" clip-rule="evenodd" d="M37.0723 0.5C37.8813 0.636632 38.5166 1.33842 38.6212 2.21894V18.7569C38.5045 19.7402 37.7257 20.5 36.7826 20.5H1.90392C0.879593 20.5 0.0498047 19.605 0.0498047 18.5009V2.47426C0.0498047 1.47712 0.727991 0.649743 1.61413 0.5H37.0723ZM15.7574 14.639C16.3376 14.2192 16.7941 13.6957 17.1284 13.0662L16.5498 15.4933H16.8578C17.0852 15.4933 17.3127 15.4925 17.5402 15.4917C18.1316 15.4897 18.7232 15.4877 19.3142 15.4993C19.5667 15.5043 19.6682 15.4332 19.723 15.19C19.8631 14.5703 20.0118 13.9525 20.1605 13.3348C20.2707 12.8772 20.3809 12.4196 20.4875 11.9613C20.5222 11.8111 20.5755 11.7561 20.7396 11.7571C21.6734 11.7617 22.6072 11.7615 23.5412 11.7614C23.9345 11.7614 24.3278 11.7613 24.7213 11.7616C24.7548 11.7616 24.7886 11.7658 24.83 11.771C24.8506 11.7736 24.873 11.7765 24.8983 11.7791C24.6001 13.0142 24.3046 14.2382 24.0013 15.4933H24.3408C24.6619 15.4933 24.9829 15.4939 25.3039 15.4946C26.0863 15.4963 26.8686 15.4979 27.6507 15.4898C28.1238 15.4848 28.5999 15.4667 29.0678 15.4057C30.2132 15.2561 31.3198 14.9478 32.2778 14.3158C33.5003 13.5086 34.2508 12.3411 34.7197 11.0015C35.0686 10.0036 35.1783 8.98474 34.8672 7.96137C34.5189 6.8149 33.8487 5.93766 32.5573 5.69145C32.0206 5.58886 31.4658 5.53031 30.9187 5.52831C27.9535 5.5171 24.9883 5.5187 22.0239 5.5203C21.2829 5.5207 20.542 5.5211 19.8012 5.5213C19.7257 5.5213 19.6448 5.51567 19.5633 5.51C19.3403 5.49448 19.1127 5.47864 18.9777 5.57685C18.8547 5.66641 18.8235 5.87598 18.7927 6.08257C18.7805 6.16457 18.7683 6.24611 18.7505 6.31948C18.6541 6.71687 18.5605 7.11477 18.4644 7.52356C18.4259 7.68722 18.387 7.85261 18.3473 8.02042H18.6832C22.5014 8.02042 26.3195 8.02042 30.1377 8.02092C31.03 8.02142 31.5817 8.43327 31.7794 9.27549C31.9279 9.90602 31.8203 10.5205 31.5336 11.096C30.9694 12.2275 29.9612 12.7735 28.735 12.9991C28.5062 13.0412 28.2717 13.054 28.0274 13.0675C27.9109 13.0739 27.7922 13.0804 27.6709 13.0902L28.6046 9.25948H28.3339H18.3013C18.2904 9.25948 18.2788 9.25825 18.2671 9.25703C18.2415 9.25434 18.216 9.25166 18.1993 9.26198C18.1853 9.27085 18.1699 9.27976 18.1542 9.28887C18.0945 9.32346 18.0299 9.36089 18.0156 9.4096C17.9547 9.61545 17.9061 9.82463 17.8576 10.0337C17.8384 10.1163 17.8192 10.1989 17.7992 10.2813C17.6895 10.7362 17.5789 11.1906 17.4682 11.6453L17.4338 11.7866C17.4323 11.044 17.2097 10.3774 16.8645 9.72787C16.4768 8.99775 16.0943 8.26013 15.7884 7.49648C15.539 6.87445 15.4142 6.20939 15.8221 5.57585C15.8254 5.57074 15.8203 5.56055 15.8134 5.54695C15.8096 5.53923 15.8051 5.53041 15.8014 5.5208C15.6068 5.5208 15.412 5.52062 15.2172 5.52043C14.51 5.51975 13.8011 5.51907 13.0919 5.52731C13.0158 5.52831 12.9087 5.60637 12.8698 5.67643C12.6426 6.08628 12.5427 6.53166 12.5298 6.99405C12.5101 7.70265 12.7301 8.35471 13.0598 8.97523C13.206 9.25056 13.3578 9.52335 13.5096 9.79612C13.7733 10.27 14.037 10.7438 14.2709 11.2306C14.6912 12.1049 14.0696 12.9916 13.0733 12.9941C12.7954 12.9948 12.5175 12.9964 12.2395 12.9981C11.4142 13.003 10.5886 13.0079 9.76389 12.9861C9.19973 12.9711 8.62264 12.9261 8.07867 12.791C7.12995 12.5553 6.71279 11.8992 6.79871 10.9829C6.94829 9.38808 7.97878 8.53986 9.42125 8.23461C9.8314 8.14806 10.2563 8.12794 10.6817 8.10781C10.9032 8.09733 11.1248 8.08684 11.3446 8.06696C11.4284 8.05896 11.5645 8.00591 11.5785 7.95086C11.744 7.30418 11.8986 6.65519 12.0576 5.9881C12.0944 5.83337 12.1315 5.67767 12.1691 5.5208C11.9727 5.5208 11.779 5.52036 11.5871 5.51992C11.1662 5.51896 10.7538 5.51802 10.3415 5.5218C8.13042 5.54232 6.23507 6.27044 4.82623 7.95237C3.66997 9.33254 3.1436 10.9264 3.48675 12.7029C3.7238 13.9289 4.39406 14.8853 5.69006 15.2701C6.18331 15.4162 6.72055 15.4768 7.23916 15.4833C8.48417 15.4993 9.72963 15.4971 10.9751 15.495C11.6345 15.4938 12.2939 15.4927 12.9532 15.4943C13.9842 15.4963 14.9277 15.2396 15.7574 14.639Z" fill="white"></path></svg>
