<svg xmlns="http://www.w3.org/2000/svg" width="32" height="32" viewBox="0 0 32 32" fill="none">
<path fill-rule="evenodd" clip-rule="evenodd" d="M32 16C32 24.8366 24.8366 32 16 32C7.16344 32 0 24.8366 0 16C0 7.16344 7.16344 0 16 0C24.8366 0 32 7.16344 32 16ZM16.2025 27.2253L16.2023 27.2253C15.3819 27.3883 14.4026 27.5829 13.8183 27.6345C13.109 27.6971 12.4397 27.2644 12.0317 26.6431C11.6227 26.022 11.5247 25.227 11.7675 24.5139L15.0668 14.8432H11.6365C11.6335 12.8281 13.0515 11.3464 14.865 10.7778C15.7305 10.5064 17.3429 10.1349 18.1818 10.1918C18.6843 10.2259 19.5603 10.562 19.9683 11.1832C20.3773 11.8044 20.4754 12.5993 20.2325 13.3125L16.9332 22.9832H20.3625C20.3631 24.9959 18.9981 26.7142 17.1354 27.0452C16.8845 27.0897 16.5585 27.1545 16.2025 27.2253ZM16 6.54957C16 7.75445 16.9768 8.73139 18.1818 8.73139C19.3869 8.73139 20.3636 7.75452 20.3636 6.54957C20.3636 5.34456 19.3868 4.36776 18.1818 4.36776C16.9768 4.36776 16 5.34456 16 6.54957Z" fill="white"/>
</svg>
