<svg xmlns="http://www.w3.org/2000/svg" width="44" height="44" viewBox="5 5 35 35"><path fill="#FFF" d="M22.275 6.05c-8.96 0-16.225 7.264-16.225 16.225 0 8.961 7.264 16.225 16.225 16.225 8.961 0 16.225-7.264 16.225-16.225 0-8.961-7.264-16.225-16.225-16.225zm0 4.851c2.965 0 5.367 2.404 5.367 5.367 0 2.964-2.402 5.367-5.367 5.367-2.963 0-5.366-2.403-5.366-5.367 0-2.963 2.403-5.367 5.366-5.367zm-.004 23.357c-2.956 0-5.665-1.077-7.754-2.86-.508-.434-.802-1.07-.802-1.738 0-3.005 2.432-5.41 5.438-5.41h6.245c3.007 0 5.43 2.405 5.43 5.41 0 .669-.292 1.304-.802 1.738-2.088 1.783-4.797 2.86-7.755 2.86z"></path></svg>
