<svg xmlns="http://www.w3.org/2000/svg" width="30" height="30" viewBox="13 13 17 17">
  <g fill="none" fill-rule="evenodd">
    <path d="M0 0H44V44H0z"/>
    <path fill="#FFF" fill-rule="nonzero" d="M30.15 29.177l-4.794-4.793c.91-1.122 1.457-2.55 1.457-4.103 0-3.601-2.93-6.531-6.532-6.531-3.601 0-6.531 2.93-6.531 6.531 0 3.602 2.93 6.532 6.531 6.532 1.554 0 2.98-.548 4.103-1.457l4.793 4.793c.134.135.352.135.486 0l.486-.486c.135-.134.135-.352 0-.486zm-9.8-3.877c-2.73 0-4.95-2.22-4.95-4.95s2.22-4.95 4.95-4.95 4.95 2.22 4.95 4.95-2.22 4.95-4.95 4.95z"/>
  </g>
</svg>
